<mxfile host="app.diagrams.net" modified="2024-02-22T00:59:59.279Z" agent="Mozilla/5.0 (Macintosh; Intel Mac OS X 10_15_7) AppleWebKit/605.1.15 (KHTML, like Gecko) Version/17.1 Safari/605.1.15" version="23.1.5" etag="sIhBlrpJ5ui7RgHp9nyI" type="github">
  <diagram name="Page-1" id="BD0tTFeO_wCGEIxvYtKD">
    <mxGraphModel>
      <root>
        <mxCell id="0" />
        <mxCell id="1" parent="0" />
      </root>
    </mxGraphModel>
  </diagram>
</mxfile>
